<?xml version="1.0" standalone="no"?>
<!DOCTYPE svg PUBLIC "-//W3C//DTD SVG 20010904//EN"
 "http://www.w3.org/TR/2001/REC-SVG-20010904/DTD/svg10.dtd">
<svg version="1.0" xmlns="http://www.w3.org/2000/svg"
 width="700.000000pt" height="700.000000pt" viewBox="0 0 700.000000 700.000000"
 preserveAspectRatio="xMidYMid meet">
<metadata>
Created by potrace 1.14, written by Peter Selinger 2001-2017
</metadata>
<g transform="translate(0.000000,700.000000) scale(0.100000,-0.100000)"
fill="#000000" stroke="none">
<path d="M3269 6996 c-2 -2 -40 -6 -84 -9 -44 -4 -89 -8 -100 -11 -11 -2 -42
-7 -70 -10 -94 -12 -130 -18 -135 -21 -4 -2 -29 -7 -56 -10 -66 -9 -288 -66
-399 -103 -228 -76 -463 -180 -643 -284 -46 -26 -88 -48 -93 -48 -5 0 -9 -4
-9 -10 0 -5 -5 -10 -12 -10 -16 0 -195 -121 -308 -209 -659 -512 -1113 -1235
-1286 -2046 -52 -247 -67 -389 -69 -690 -3 -376 21 -586 106 -918 212 -824
745 -1569 1459 -2038 377 -248 836 -437 1245 -513 269 -51 387 -61 690 -61
291 0 372 7 620 51 1017 182 1918 821 2419 1718 59 104 166 319 166 331 0 2
11 28 24 57 57 127 151 421 182 573 64 310 79 464 78 800 0 240 -9 360 -39
540 -135 803 -544 1531 -1160 2069 -112 98 -419 326 -438 326 -2 0 -46 26 -98
57 -293 177 -693 329 -1059 403 -129 26 -184 34 -360 55 -54 7 -565 17 -571
11z"/>
</g>
</svg>
